<svg id="visual" viewBox="0 0 9000 6000" width="9000" height="6000" xmlns="http://www.w3.org/2000/svg" xmlns:xlink="http://www.w3.org/1999/xlink" version="1.1"><path d="M0 3470L375 3537.3C750 3604.7 1500 3739.3 2250 3436.2C3000 3133 3750 2392 4500 2323.5C5250 2255 6000 2859 6750 2944.5C7500 3030 8250 2597 8625 2380.5L9000 2164L9000 0L8625 0C8250 0 7500 0 6750 0C6000 0 5250 0 4500 0C3750 0 3000 0 2250 0C1500 0 750 0 375 0L0 0Z" fill="#FFF8F0" stroke-linecap="round" stroke-linejoin="miter"></path></svg>