<svg id="visual" viewBox="0 0 900 600" width="900" height="600" xmlns="http://www.w3.org/2000/svg" xmlns:xlink="http://www.w3.org/1999/xlink" version="1.1"><path d="M0 399L30 419.7C60 440.3 120 481.7 180 466.5C240 451.3 300 379.7 360 343.3C420 307 480 306 540 321.5C600 337 660 369 720 389.5C780 410 840 419 870 423.5L900 428L900 601L870 601C840 601 780 601 720 601C660 601 600 601 540 601C480 601 420 601 360 601C300 601 240 601 180 601C120 601 60 601 30 601L0 601Z" fill="#F7EEE4" stroke-linecap="round" stroke-linejoin="miter"></path></svg>